PathFileType	4	(X/Y/Z)	PS_ngait_og_ss8.trc	
DataRate	CameraRate	NumFrames	NumMarkers	Units	OrigDataRate	OrigDataStartFrame	OrigNumFrames	
120.00	120.00	7	39	mm	120.00	394	129	
Frame#	Time	Sternum			Neck			RShoulder			LShoulder			Xiphoid			Thoracic			RAsis			LAsis			RPsis			LPsis			LThighSuperior			LThighInferior			LThighLateral			LShankSuperior			LShankInferior			LShankLateral			RThighSuperior			RThighInferior			RThighLateral			RShankSuperior			RShankInferior			RShankLateral			RHeel			RToe			RMidfootMedial			RMidfootLateral			RHindfoot			RMidfootSuperior			RToeMedial			RToeLateral			LHeel			LToe			LMidfootMedial			LMidfootLateral			LHindfoot			LMidfootSuperior			LToeMedial			LToeLateral			Sacral			
		X1	Y1	Z1	X2	Y2	Z2	X3	Y3	Z3	X4	Y4	Z4	X5	Y5	Z5	X6	Y6	Z6	X7	Y7	Z7	X8	Y8	Z8	X9	Y9	Z9	X10	Y10	Z10	X11	Y11	Z11	X12	Y12	Z12	X13	Y13	Z13	X14	Y14	Z14	X15	Y15	Z15	X16	Y16	Z16	X17	Y17	Z17	X18	Y18	Z18	X19	Y19	Z19	X20	Y20	Z20	X21	Y21	Z21	X22	Y22	Z22	X23	Y23	Z23	X24	Y24	Z24	X25	Y25	Z25	X26	Y26	Z26	X27	Y27	Z27	X28	Y28	Z28	X29	Y29	Z29	X30	Y30	Z30	X31	Y31	Z31	X32	Y32	Z32	X33	Y33	Z33	X34	Y34	Z34	X35	Y35	Z35	X36	Y36	Z36	X37	Y37	Z37	X38	Y38	Z38	X39	Y39	Z39	

17	0.133	230.58191	1429.23999	110.06689	67.23733	1530.26135	110.32231	114.53135	1519.05090	273.16162	98.29772	1515.38342	-28.12284	263.42123	1272.01196	122.04706	-14.64921	1312.21460	120.94307	170.83951	1006.61469	266.34283	194.74039	1005.32764	-9.40828	-12.42180	1028.44348	171.27251	-8.83958	1023.03528	67.52095	156.76912	838.20673	-67.23024	240.80345	617.70593	-34.25877	287.84686	735.06049	11.40945	278.75534	384.04642	-39.65894	270.12506	183.13644	-5.11008	312.49469	281.55981	28.17433	109.23519	808.07758	314.01019	108.04021	569.37427	309.40891	201.18408	718.44116	256.41086	22.20453	448.34125	321.56308	-150.93240	266.94678	286.62244	-20.88949	319.33386	248.44655	-287.00162	250.98434	233.43906	-90.18891	15.00789	246.90146	-172.67273	62.84206	194.94745	-179.53691	63.73918	312.96939	-210.49728	103.37504	302.36267	-163.37187	134.75710	244.14653	-139.29010	37.72604	198.33229	-140.12706	38.35654	301.80896	191.27705	64.74609	51.22141	500.62469	63.98248	9.15395	406.78397	37.88759	70.63160	396.89731	33.27969	-45.25256	343.12668	30.45537	-31.41217	377.99396	98.67349	21.43126	448.08105	39.90192	63.05380	440.56451	44.51013	-40.58840	-10.63069	1025.73938	119.39673 
18	0.142	238.97499	1430.73743	109.00292	75.35783	1531.46826	108.86951	122.12209	1520.63318	271.31479	107.22257	1516.71130	-29.94014	271.74637	1273.52881	120.95139	-6.17975	1313.32739	119.39924	179.13594	1006.57574	264.85013	203.27257	1007.19293	-10.81984	-3.94235	1029.83459	169.76790	-0.45984	1024.35901	65.82273	164.38515	838.53101	-67.90543	245.58800	617.49677	-35.41421	294.68439	734.50940	9.41991	280.40796	383.62936	-39.02416	270.58099	183.02132	-5.15956	314.35934	281.14212	27.81849	121.76920	808.33325	313.08685	125.76534	569.77588	309.46396	215.35976	720.68115	255.50661	40.29507	451.17557	322.16074	-135.75029	273.36423	285.82837	-2.48121	323.97815	249.56029	-269.20474	263.67416	231.41483	-87.18822	13.57949	247.36505	-165.16402	69.02510	194.99593	-171.87881	70.89604	311.99744	-200.97475	112.77036	301.53769	-148.82700	139.65083	244.22118	-133.93423	40.65388	198.70511	-134.73018	41.66862	302.17902	191.25102	64.71030	51.20131	500.77573	63.71087	9.21961	406.85596	37.76860	70.76187	396.97183	33.22020	-45.24863	343.07034	30.53683	-31.46279	378.03256	98.43787	21.64440	448.20645	39.71948	63.13423	440.65897	44.36573	-40.50403	-2.20110	1027.09680	117.79532 
19	0.150	247.12621	1432.20422	107.74527	83.23612	1532.57593	107.48277	129.58231	1522.11218	269.58533	116.04266	1517.96753	-31.69582	279.97928	1274.83105	119.98666	2.25893	1314.52881	117.92023	187.40776	1006.65662	263.25760	211.94641	1008.89355	-12.48919	4.55992	1031.35437	168.09903	8.05706	1025.71094	63.80170	171.83269	838.81512	-68.58737	250.62250	618.26141	-36.20851	301.17999	733.92664	7.86344	283.43872	383.22592	-40.15707	271.20502	182.89310	-5.41076	316.07758	280.80710	27.57331	134.04488	808.74872	312.02689	142.90201	570.80194	309.45355	228.85901	722.84625	254.91118	58.11386	454.50693	322.51038	-120.25103	279.28339	284.80341	16.23005	329.01767	250.49240	-252.35538	273.80103	229.19362	-85.08529	8.92222	246.70934	-156.22990	74.62385	194.62184	-162.58093	77.63213	310.95731	-190.30307	120.84930	300.80066	-130.04922	141.87239	244.32060	-128.30185	41.93612	198.45567	-128.25014	42.69724	301.93481	191.26389	64.67200	51.20914	500.83521	63.49260	9.22618	406.88730	37.68084	70.88522	397.01196	33.22925	-45.22493	343.04083	30.56145	-31.52912	378.12668	98.27554	21.73237	448.27899	39.57418	63.18594	440.63351	44.27160	-40.44283	6.30849	1028.53259	115.95036 
20	0.158	255.32855	1433.59290	106.69474	90.97637	1533.65234	106.03933	137.04199	1523.52332	268.00897	124.62548	1519.24243	-33.47004	288.26242	1276.25000	118.87504	10.59625	1315.74500	116.50397	195.52496	1007.01514	261.83267	220.54875	1010.50067	-13.91578	12.92823	1032.84155	166.49677	16.48837	1027.16345	61.94206	179.23421	839.25928	-69.41912	255.46596	618.14166	-37.11800	307.29929	733.80627	6.79430	285.90619	383.77252	-40.88134	272.44955	182.73489	-5.24781	317.93198	280.45645	27.10009	146.11852	809.82312	311.01767	159.30148	572.54480	309.38947	242.12086	725.21350	254.44113	75.64310	458.13007	322.53876	-105.05373	285.25577	283.70718	34.98171	334.09341	251.09062	-236.48051	280.79294	226.51979	-76.48541	10.85541	247.29620	-143.77637	79.11241	194.59077	-151.00761	83.71003	310.52084	-177.92877	127.33950	299.97781	-115.04535	145.77452	243.66664	-117.81454	45.52121	198.55003	-118.29169	47.06905	302.01932	191.32275	64.31673	51.51331	500.96890	63.31957	9.26261	406.88605	37.59764	70.89735	396.99841	33.19637	-45.26913	343.03033	30.56161	-31.54079	378.15234	98.16834	21.76720	448.34750	39.45152	63.18114	440.76718	44.21065	-40.44960	14.70830	1030.00244	114.21941 
21	0.167	263.35150	1435.09485	105.51189	98.68719	1534.85986	104.44855	144.59526	1524.82373	266.70297	133.10255	1520.47070	-34.99504	296.56186	1277.95239	118.03371	18.88813	1317.04004	115.16634	203.72951	1007.78656	260.38889	229.05304	1011.84558	-15.08312	21.30378	1034.38977	164.94211	24.85689	1028.65479	60.37259	186.66255	840.00195	-70.49237	260.20883	618.15662	-38.03523	313.32010	733.81378	5.78688	288.46594	383.42038	-41.41594	273.18115	182.94658	-5.71819	319.49405	280.36658	26.77492	157.97725	811.47650	310.06073	175.35466	574.82758	309.31973	255.30273	728.06439	253.92952	93.16708	461.52719	321.94357	-90.56274	291.06174	282.58490	53.57832	338.94681	251.27652	-221.07698	286.45847	223.88489	-61.20967	17.02170	248.13692	-127.79472	84.88536	194.30142	-136.71007	89.98663	309.93591	-163.50255	133.64409	298.78986	-99.93307	151.86143	243.45187	-101.91332	51.43145	198.68810	-103.83071	53.37510	302.13403	191.55894	64.68053	51.69391	501.02911	63.16521	9.23106	406.87119	37.58615	70.94747	397.08023	33.16590	-45.25045	343.03122	30.46580	-31.48359	378.24310	98.07989	21.74018	448.39243	39.39777	63.17908	440.78824	44.10472	-40.45230	23.08034	1031.52222	112.65735 
22	0.175	271.36319	1436.57678	104.45209	106.41475	1536.15942	102.81660	151.94890	1526.18042	265.31082	141.46422	1521.67480	-36.40900	304.83545	1279.55127	116.96327	26.98180	1318.40784	113.82541	211.95042	1008.74707	259.19348	237.39561	1013.25079	-16.03052	29.61817	1035.89978	163.72575	33.11338	1030.13745	59.17139	194.11108	841.08099	-71.81938	264.86499	618.51935	-39.06625	319.09756	733.70111	4.71751	291.46896	383.48557	-42.38046	273.94324	183.37531	-6.23775	321.15518	279.89484	26.19204	169.59567	813.51190	309.13455	191.25175	577.42493	309.14175	268.26776	731.33496	253.20219	110.25641	464.90079	320.82898	-74.81226	296.05954	280.90094	71.88084	343.37665	251.02928	-205.90829	290.56989	221.00609	-41.92265	23.64349	249.36174	-109.87645	89.81435	193.55611	-119.99973	95.46226	309.19333	-147.25533	138.76988	297.53223	-83.78123	157.46214	242.75607	-82.77795	56.56145	199.03027	-86.10648	59.51537	302.41650	191.34692	64.72478	51.18639	501.05212	63.07529	9.15714	406.95645	37.57130	70.90070	397.09409	33.08563	-45.32445	343.05939	30.39720	-31.48288	378.29065	98.06857	21.73648	448.43170	39.35379	63.14126	440.78320	44.00715	-40.48928	31.36577	1033.01868	111.44857 
23	0.183	279.38623	1438.04126	103.42250	114.28180	1537.54956	101.12234	159.57866	1527.50159	264.04797	149.72385	1522.90198	-37.74229	313.03726	1281.09082	116.03879	35.04521	1319.85388	112.49409	220.12119	1010.24731	258.11575	245.51631	1014.66290	-16.98397	37.79524	1037.49561	162.66435	41.23078	1031.61621	58.19339	201.46187	842.39325	-73.30369	269.65311	618.81219	-40.23493	324.78363	733.68323	3.63463	293.28839	382.97083	-42.07924	274.78525	183.48395	-6.57525	322.48810	279.40073	25.58121	180.94354	815.73651	308.20688	206.86879	580.16510	308.88947	281.40198	735.27130	251.37186	127.01747	468.37976	319.42712	-58.08204	300.10663	279.45242	89.80254	347.23529	250.37334	-189.71918	292.88388	218.56392	-22.24444	28.62287	249.77135	-90.94928	93.14718	192.90324	-101.79402	99.50168	308.13864	-129.69402	142.35132	296.40338	-66.32574	161.64415	241.68535	-63.30727	60.39217	198.87381	-67.39464	64.20389	302.20474	191.30086	64.78208	51.10674	501.05038	62.99844	9.05916	406.94955	37.60804	70.87004	397.07434	33.09824	-45.31069	343.07309	30.36563	-31.50449	378.15515	98.08970	21.32942	448.43491	39.35049	63.08034	440.73746	43.96788	-40.54818	39.51301	1034.55591	110.42887 
